<svg width="25" height="24" viewBox="0 0 25 24" fill="none" xmlns="http://www.w3.org/2000/svg">
<path d="M17.1281 9.33333C18.2327 9.33333 19.1281 8.4379 19.1281 7.33333C19.1281 6.22876 18.2327 5.33333 17.1281 5.33333C16.0235 5.33333 15.1281 6.22876 15.1281 7.33333C15.1281 8.4379 16.0235 9.33333 17.1281 9.33333Z" fill="#32323B"/>
<path d="M0.461426 2.66667C0.461426 1.19391 1.65533 0 3.12809 0H21.7948C23.2675 0 24.4614 1.19391 24.4614 2.66667V21.3333C24.4614 22.8061 23.2675 24 21.7948 24H3.12809C1.65533 24 0.461426 22.8061 0.461426 21.3333V2.66667ZM21.7948 2.66667H3.12809V13.2259L7.62855 9.62551C8.11551 9.23594 8.80744 9.23594 9.2944 9.62551L15.0292 14.2133L16.852 12.3905C17.3727 11.8698 18.2169 11.8698 18.7376 12.3905L21.7948 15.4477V2.66667ZM3.12809 21.3333H21.7948V19.2189L17.7948 15.219L16.071 16.9428C15.5905 17.4232 14.8257 17.4656 14.2952 17.0412L8.46148 12.3742L3.12809 16.6409V21.3333Z" fill="#32323B"/>
</svg>
