<svg width="33" height="32" viewBox="0 0 33 32" fill="none" xmlns="http://www.w3.org/2000/svg">
<g clip-path="url(#clip0_5911_527)">
<path d="M9.79476 24.0001C8.32809 24.0001 7.14143 25.2001 7.14143 26.6667C7.14143 28.1334 8.32809 29.3334 9.79476 29.3334C11.2614 29.3334 12.4614 28.1334 12.4614 26.6667C12.4614 25.2001 11.2614 24.0001 9.79476 24.0001ZM23.1281 24.0001C21.6614 24.0001 20.4748 25.2001 20.4748 26.6667C20.4748 28.1334 21.6614 29.3334 23.1281 29.3334C24.5948 29.3334 25.7948 28.1334 25.7948 26.6667C25.7948 25.2001 24.5948 24.0001 23.1281 24.0001ZM21.1948 17.3334C22.1948 17.3334 23.0748 16.7867 23.5281 15.9601L28.3014 7.30675C28.7948 6.42675 28.1548 5.33341 27.1414 5.33341H7.40809L6.15476 2.66675H1.79476V5.33341H4.46143L9.26143 15.4534L7.46143 18.7067C6.48809 20.4934 7.76809 22.6667 9.79476 22.6667H25.7948V20.0001H9.79476L11.2614 17.3334H21.1948ZM8.67476 8.00008H24.8748L21.1948 14.6667H11.8348L8.67476 8.00008Z" fill="#32323B"/>
</g>
<defs>
<clipPath id="clip0_5911_527">
<rect width="32" height="32" fill="white" transform="translate(0.461426)"/>
</clipPath>
</defs>
</svg>
