<svg width="613" height="459" viewBox="0 0 613 459" fill="none" xmlns="http://www.w3.org/2000/svg">
<path d="M482.763 374.468H130.16C129.958 374.464 129.766 374.382 129.623 374.24C129.48 374.097 129.398 373.905 129.395 373.703C129.395 373.5 129.475 373.306 129.619 373.162C129.762 373.019 129.957 372.938 130.16 372.938H482.763C482.966 372.938 483.161 373.019 483.304 373.162C483.448 373.306 483.528 373.5 483.528 373.703C483.524 373.905 483.443 374.097 483.3 374.24C483.157 374.382 482.965 374.464 482.763 374.468Z" fill="#C6C6C6"/>
<path d="M477.944 111.354V323.81C477.94 327.755 476.37 331.538 473.578 334.327C470.787 337.115 467.003 338.681 463.057 338.681H149.866C145.92 338.681 142.136 337.115 139.345 334.327C136.553 331.538 134.983 327.755 134.979 323.81V111.354C134.979 109.4 135.364 107.465 136.113 105.659C136.861 103.854 137.958 102.214 139.34 100.833C140.723 99.4516 142.364 98.3565 144.17 97.6101C145.976 96.8636 147.912 96.4804 149.866 96.4824H463.057C465.011 96.4804 466.947 96.8636 468.753 97.6101C470.559 98.3565 472.2 99.4516 473.583 100.833C474.965 102.214 476.062 103.854 476.81 105.659C477.559 107.465 477.944 109.4 477.944 111.354Z" fill="#FCFCFC"/>
<path d="M463.072 339.384H149.851C145.724 339.376 141.768 337.732 138.851 334.812C135.935 331.892 134.295 327.936 134.29 323.809V111.353C134.29 107.225 135.929 103.265 138.847 100.345C141.765 97.4242 145.722 95.7814 149.851 95.7773H463.072C467.2 95.7814 471.158 97.4242 474.076 100.345C476.993 103.265 478.632 107.225 478.632 111.353V323.809C478.628 327.936 476.988 331.892 474.071 334.812C471.155 337.732 467.199 339.376 463.072 339.384ZM149.851 97.1696C146.093 97.1777 142.492 98.6751 139.836 101.334C137.18 103.992 135.687 107.595 135.683 111.353V323.809C135.687 327.565 137.181 331.166 139.837 333.822C142.493 336.478 146.094 337.972 149.851 337.976H463.072C466.828 337.972 470.43 336.478 473.086 333.822C475.742 331.166 477.236 327.565 477.24 323.809V111.353C477.236 107.595 475.742 103.992 473.087 101.334C470.431 98.6751 466.83 97.1777 463.072 97.1696H149.851Z" fill="#32323B"/>
<path d="M149.07 114.122H459.783V285.972H149.07V114.122Z" fill="#FCFCFC"/>
<path d="M459.783 286.676H149.07C148.978 286.676 148.887 286.657 148.801 286.622C148.716 286.587 148.638 286.535 148.573 286.47C148.507 286.404 148.456 286.327 148.42 286.241C148.385 286.156 148.367 286.064 148.367 285.972V114.122C148.367 113.936 148.441 113.757 148.573 113.625C148.705 113.493 148.884 113.418 149.07 113.418H459.783C459.967 113.422 460.142 113.498 460.271 113.63C460.399 113.761 460.471 113.938 460.471 114.122V285.972C460.471 286.156 460.399 286.333 460.271 286.464C460.142 286.596 459.967 286.672 459.783 286.676ZM149.759 285.268H459.079V114.75H149.759V285.268Z" fill="#32323B"/>
<path d="M306.461 327.221C304.899 327.221 303.372 326.758 302.074 325.89C300.775 325.021 299.763 323.788 299.166 322.344C298.569 320.901 298.413 319.312 298.719 317.781C299.025 316.249 299.779 314.842 300.884 313.739C301.99 312.635 303.398 311.884 304.93 311.581C306.463 311.279 308.051 311.437 309.493 312.037C310.935 312.637 312.167 313.651 313.033 314.951C313.899 316.252 314.359 317.78 314.356 319.342C314.352 321.433 313.518 323.437 312.038 324.914C310.558 326.392 308.552 327.221 306.461 327.221ZM306.461 312.977C305.202 312.977 303.972 313.35 302.925 314.05C301.879 314.749 301.063 315.743 300.581 316.906C300.099 318.069 299.973 319.349 300.219 320.583C300.464 321.818 301.071 322.952 301.961 323.842C302.851 324.732 303.985 325.339 305.22 325.584C306.454 325.83 307.734 325.704 308.897 325.222C310.06 324.74 311.054 323.925 311.753 322.878C312.453 321.831 312.826 320.601 312.826 319.342C312.822 317.655 312.15 316.038 310.957 314.846C309.765 313.653 308.148 312.981 306.461 312.977Z" fill="#32323B"/>
<path d="M356.385 365.67C352.331 360.835 351.642 338.711 351.642 338.711H261.281C261.281 338.711 260.592 360.835 256.538 365.67C252.483 370.504 236.54 378.384 236.54 381.184C236.54 383.984 238.912 385.009 250.433 385.009H362.49C374.011 385.009 376.382 383.984 376.382 381.184C376.382 378.384 360.455 370.474 356.385 365.67Z" fill="#FCFCFC"/>
<path d="M362.49 385.668H250.433C238.973 385.668 235.837 384.704 235.837 381.154C235.837 379.379 239.31 377.038 245.46 373.03C249.729 370.261 254.151 367.384 256.002 365.196C259.858 360.606 260.592 338.88 260.592 338.666C260.596 338.482 260.672 338.307 260.803 338.178C260.935 338.05 261.112 337.977 261.296 337.978H351.657C351.842 337.977 352.018 338.05 352.15 338.178C352.281 338.307 352.357 338.482 352.361 338.666C352.361 338.88 353.08 360.591 356.951 365.196C358.803 367.384 363.224 370.261 367.493 373.03C373.613 377.038 377.117 379.379 377.117 381.154C377.086 384.704 373.95 385.668 362.49 385.668ZM261.954 339.385C261.801 343.225 260.883 361.555 257.073 366.084C255.099 368.44 250.586 371.377 246.225 374.208C242.645 376.534 237.244 380.053 237.244 381.154C237.244 382.99 238.177 384.214 250.433 384.214H362.49C374.73 384.214 375.678 382.929 375.678 381.154C375.678 380.053 370.278 376.564 366.697 374.208C362.337 371.377 357.823 368.44 355.85 366.084C352.04 361.494 351.122 343.225 350.969 339.385H261.954Z" fill="#32323B"/>
<path d="M160.561 64.1533H452.362C456.099 64.1533 459.684 65.6379 462.326 68.2806C464.969 70.9232 466.454 74.5074 466.454 78.2446V84.1504H146.454V78.2446C146.454 76.3928 146.819 74.5592 147.528 72.8486C148.237 71.138 149.277 69.5839 150.587 68.2752C151.897 66.9665 153.452 65.9288 155.163 65.2216C156.875 64.5143 158.709 64.1513 160.561 64.1533Z" fill="#32323B"/>
<path d="M466.469 84.7922H146.454C146.288 84.7783 146.133 84.7062 146.015 84.5885C145.897 84.4709 145.825 84.3154 145.811 84.1496V78.2438C145.815 74.3212 147.376 70.5603 150.149 67.7866C152.923 65.0128 156.684 63.4528 160.606 63.4487H452.362C456.277 63.4649 460.026 65.0303 462.79 67.8027C465.554 70.5752 467.107 74.3291 467.111 78.2438V84.1496C467.097 84.3154 467.025 84.4709 466.908 84.5885C466.79 84.7062 466.634 84.7783 466.469 84.7922ZM147.158 83.3846H465.765V78.2438C465.761 74.6904 464.348 71.2837 461.835 68.7711C459.322 66.2585 455.915 64.8451 452.362 64.841H160.561C157.007 64.8451 153.6 66.2585 151.088 68.7711C148.575 71.2837 147.162 74.6904 147.158 78.2438V83.3846Z" fill="#32323B"/>
<path d="M398.843 240.211H214.08C213.877 240.211 213.682 240.13 213.539 239.986C213.396 239.843 213.315 239.648 213.315 239.446V181.397C213.315 181.194 213.396 181 213.539 180.856C213.682 180.713 213.877 180.632 214.08 180.632H398.843C399.046 180.632 399.24 180.713 399.384 180.856C399.527 181 399.608 181.194 399.608 181.397V239.446C399.608 239.648 399.527 239.843 399.384 239.986C399.24 240.13 399.046 240.211 398.843 240.211ZM214.845 238.681H398.078V182.162H214.845V238.681Z" fill="#C6C6C6"/>
<path d="M398.843 284.794C398.64 284.794 398.445 284.714 398.302 284.57C398.158 284.427 398.078 284.232 398.078 284.029V247.631H214.845V284.029C214.845 284.232 214.764 284.427 214.621 284.57C214.477 284.714 214.283 284.794 214.08 284.794C213.877 284.794 213.682 284.714 213.539 284.57C213.396 284.427 213.315 284.232 213.315 284.029V246.866C213.315 246.663 213.396 246.468 213.539 246.325C213.682 246.181 213.877 246.101 214.08 246.101H398.843C399.046 246.101 399.24 246.181 399.384 246.325C399.527 246.468 399.608 246.663 399.608 246.866V284.029C399.608 284.232 399.527 284.427 399.384 284.57C399.24 284.714 399.046 284.794 398.843 284.794Z" fill="#C6C6C6"/>
<path d="M495.156 381.506H424.394L433.543 325.263H486.007L495.156 381.506Z" fill="#FCFCFC"/>
<path d="M495.156 382.27H424.394C424.282 382.272 424.171 382.249 424.068 382.204C423.965 382.159 423.873 382.093 423.797 382.01C423.728 381.923 423.678 381.822 423.649 381.714C423.62 381.606 423.613 381.494 423.629 381.383L432.809 325.14C432.841 324.96 432.935 324.798 433.075 324.68C433.215 324.563 433.391 324.498 433.574 324.498H486.037C486.22 324.498 486.397 324.563 486.536 324.68C486.676 324.798 486.77 324.96 486.802 325.14L495.982 381.383C496 381.495 495.993 381.609 495.961 381.717C495.929 381.826 495.874 381.926 495.799 382.01C495.721 382.102 495.621 382.174 495.509 382.219C495.398 382.264 495.276 382.282 495.156 382.27ZM425.281 380.74H494.269L485.364 326.028H434.186L425.281 380.74Z" fill="#32323B"/>
<path d="M443.886 333.539H443.764C443.564 333.502 443.387 333.388 443.27 333.223C443.153 333.057 443.105 332.852 443.136 332.652C443.289 331.734 447.007 309.962 459.783 309.962C472.558 309.962 476.261 331.734 476.414 332.652C476.445 332.852 476.397 333.057 476.28 333.223C476.163 333.388 475.986 333.502 475.787 333.539C475.586 333.571 475.381 333.523 475.216 333.405C475.05 333.288 474.936 333.111 474.899 332.912C474.899 332.698 471.242 311.492 459.783 311.492C448.323 311.492 444.682 332.698 444.651 332.912C444.616 333.089 444.52 333.248 444.381 333.362C444.241 333.477 444.066 333.539 443.886 333.539Z" fill="#32323B"/>
<path d="M445.967 386.172H397.252L403.54 347.447H439.663L445.967 386.172Z" fill="#FCFCFC"/>
<path d="M445.967 386.937H397.251C397.141 386.933 397.033 386.907 396.934 386.859C396.835 386.812 396.746 386.744 396.674 386.661C396.602 386.578 396.548 386.48 396.516 386.375C396.484 386.269 396.474 386.159 396.486 386.049L402.851 347.31C402.877 347.13 402.968 346.966 403.105 346.847C403.243 346.729 403.419 346.665 403.601 346.667H439.724C439.906 346.665 440.082 346.729 440.22 346.847C440.358 346.966 440.448 347.13 440.474 347.31L446.778 386.019C446.795 386.128 446.789 386.239 446.76 386.345C446.73 386.452 446.678 386.55 446.607 386.635C446.536 386.719 446.447 386.787 446.347 386.834C446.247 386.881 446.138 386.905 446.028 386.906L445.967 386.937ZM398.154 385.407H445.064L439.021 348.228H404.198L398.154 385.407Z" fill="#32323B"/>
<path d="M432.534 353.43C432.353 353.429 432.178 353.364 432.041 353.246C431.904 353.128 431.813 352.966 431.784 352.788C431.784 352.635 429.305 338.253 421.609 338.253C413.913 338.253 411.45 352.635 411.419 352.788C411.386 352.986 411.275 353.163 411.112 353.28C410.949 353.398 410.746 353.446 410.547 353.415C410.448 353.4 410.353 353.366 410.268 353.313C410.182 353.261 410.108 353.193 410.05 353.111C409.991 353.03 409.95 352.938 409.927 352.84C409.905 352.743 409.903 352.641 409.92 352.543C410.027 351.9 412.613 336.723 421.609 336.723C430.606 336.723 433.191 351.9 433.299 352.543C433.314 352.642 433.309 352.744 433.285 352.842C433.261 352.939 433.218 353.031 433.158 353.112C433.098 353.193 433.023 353.262 432.937 353.314C432.851 353.366 432.755 353.4 432.656 353.415L432.534 353.43Z" fill="#32323B"/>
<path d="M390.091 197.065H293.992C293.789 197.065 293.595 196.985 293.451 196.841C293.308 196.698 293.227 196.503 293.227 196.3C293.231 196.098 293.313 195.906 293.455 195.764C293.598 195.621 293.79 195.539 293.992 195.535H390.091C390.293 195.539 390.485 195.621 390.628 195.764C390.77 195.906 390.852 196.098 390.856 196.3C390.856 196.503 390.776 196.698 390.632 196.841C390.489 196.985 390.294 197.065 390.091 197.065Z" fill="#C6C6C6"/>
<path d="M390.091 207.683H293.992C293.789 207.683 293.595 207.603 293.451 207.459C293.308 207.316 293.227 207.121 293.227 206.918C293.231 206.717 293.313 206.524 293.455 206.382C293.598 206.239 293.79 206.157 293.992 206.153H390.091C390.293 206.157 390.485 206.239 390.628 206.382C390.77 206.524 390.852 206.717 390.856 206.918C390.856 207.121 390.776 207.316 390.632 207.459C390.489 207.603 390.294 207.683 390.091 207.683Z" fill="#C6C6C6"/>
<path d="M271.792 284.795H271.639C271.541 284.777 271.448 284.74 271.364 284.685C271.281 284.63 271.21 284.559 271.154 284.477C271.099 284.394 271.06 284.301 271.041 284.204C271.022 284.106 271.022 284.006 271.042 283.908L272.924 274.437C272.947 274.31 273.003 274.191 273.087 274.092C273.17 273.993 273.277 273.917 273.398 273.871C273.52 273.828 273.651 273.815 273.779 273.834C273.907 273.853 274.028 273.902 274.133 273.978L278.723 277.405L284.766 270.658C282.203 267.375 279.34 264.338 276.213 261.585C273.527 259.258 270.457 257.415 267.141 256.139C263.574 257.831 259.675 258.709 255.727 258.709C251.779 258.709 247.88 257.831 244.313 256.139C241.627 257.217 239.025 258.49 236.525 259.948C232.825 262.355 229.667 265.508 227.253 269.205L232.195 275.845L237.734 273.229C237.838 273.176 237.954 273.149 238.071 273.149C238.187 273.149 238.303 273.176 238.407 273.229C238.513 273.285 238.605 273.366 238.674 273.464C238.743 273.562 238.788 273.676 238.805 273.795L240.335 283.923C240.366 284.122 240.317 284.325 240.2 284.488C240.083 284.651 239.906 284.762 239.708 284.795C239.506 284.822 239.301 284.771 239.136 284.651C238.971 284.532 238.858 284.353 238.82 284.153L237.413 274.973L232.241 277.421C232.081 277.496 231.899 277.514 231.727 277.473C231.554 277.431 231.401 277.332 231.293 277.191L225.662 269.541C225.573 269.416 225.524 269.267 225.524 269.113C225.524 268.959 225.573 268.809 225.662 268.684C225.846 268.394 230.084 261.662 235.776 258.479C238.442 256.881 241.248 255.529 244.16 254.44C244.271 254.401 244.391 254.39 244.508 254.405C244.625 254.421 244.736 254.465 244.833 254.532C244.833 254.532 248.612 257.041 255.711 257.041C262.811 257.041 266.574 254.563 266.605 254.532C266.7 254.467 266.808 254.423 266.922 254.405C267.036 254.386 267.152 254.393 267.263 254.425C270.915 255.732 274.289 257.715 277.208 260.27C280.582 263.235 283.657 266.525 286.388 270.092C286.5 270.231 286.561 270.404 286.561 270.582C286.561 270.76 286.5 270.933 286.388 271.071L279.457 278.813C279.326 278.954 279.148 279.042 278.957 279.062C278.766 279.081 278.574 279.031 278.417 278.92L274.27 275.86L272.618 284.122C272.608 284.221 272.579 284.317 272.533 284.404C272.486 284.491 272.422 284.569 272.345 284.631C272.268 284.694 272.18 284.741 272.085 284.769C271.99 284.797 271.89 284.806 271.792 284.795Z" fill="#C6C6C6"/>
<path d="M254.442 265.885C246.792 265.885 243.839 255.925 243.732 255.497C243.679 255.3 243.706 255.091 243.806 254.913C243.906 254.736 244.072 254.605 244.267 254.548C244.462 254.495 244.669 254.52 244.846 254.617C245.023 254.714 245.155 254.876 245.216 255.068C245.216 255.16 247.954 264.248 254.396 264.355C261.556 264.355 266.299 255.038 266.345 254.946C266.389 254.855 266.451 254.774 266.526 254.708C266.601 254.641 266.689 254.59 266.784 254.557C266.88 254.524 266.98 254.511 267.081 254.517C267.181 254.523 267.28 254.55 267.37 254.594C267.547 254.689 267.681 254.848 267.744 255.039C267.807 255.23 267.793 255.438 267.707 255.619C267.508 256.047 262.505 265.885 254.442 265.885Z" fill="#C6C6C6"/>
<path d="M385.18 215.196H357.885C355.172 215.196 352.973 217.395 352.973 220.107V220.122C352.973 222.835 355.172 225.034 357.885 225.034H385.18C387.892 225.034 390.091 222.835 390.091 220.122V220.107C390.091 217.395 387.892 215.196 385.18 215.196Z" fill="#C6C6C6"/>
<path d="M390.091 264.278H293.992C293.789 264.278 293.595 264.197 293.451 264.054C293.308 263.911 293.227 263.716 293.227 263.513C293.231 263.311 293.313 263.119 293.455 262.976C293.598 262.834 293.79 262.752 293.992 262.748H390.091C390.293 262.752 390.485 262.834 390.628 262.976C390.77 263.119 390.852 263.311 390.856 263.513C390.856 263.716 390.776 263.911 390.632 264.054C390.489 264.197 390.294 264.278 390.091 264.278Z" fill="#C6C6C6"/>
<path d="M371.532 274.897H293.992C293.789 274.897 293.595 274.816 293.451 274.673C293.308 274.529 293.227 274.335 293.227 274.132C293.231 273.93 293.313 273.738 293.455 273.595C293.598 273.452 293.79 273.371 293.992 273.367H371.532C371.734 273.371 371.926 273.452 372.069 273.595C372.212 273.738 372.293 273.93 372.297 274.132C372.297 274.335 372.217 274.529 372.073 274.673C371.93 274.816 371.735 274.897 371.532 274.897Z" fill="#C6C6C6"/>
<path d="M275.617 228.859H256.645C256.456 228.859 256.274 228.789 256.135 228.661C255.996 228.533 255.91 228.358 255.895 228.17L254.885 218.715L253.233 228.231C253.204 228.408 253.112 228.569 252.974 228.684C252.837 228.799 252.662 228.861 252.483 228.859H234.705C234.595 228.858 234.487 228.834 234.387 228.789C234.287 228.744 234.197 228.68 234.123 228.598C234.051 228.518 233.998 228.423 233.966 228.32C233.935 228.217 233.925 228.109 233.94 228.002L238.116 193.148C238.139 192.962 238.229 192.79 238.371 192.666C238.512 192.542 238.693 192.474 238.881 192.475H271.501C271.688 192.477 271.868 192.546 272.009 192.67C272.149 192.793 272.24 192.963 272.266 193.148L276.382 227.971C276.396 228.078 276.387 228.187 276.355 228.29C276.323 228.392 276.27 228.487 276.198 228.568C276.127 228.654 276.039 228.725 275.938 228.775C275.838 228.825 275.729 228.854 275.617 228.859ZM257.257 227.329H274.683L270.751 194.005H239.555L235.561 227.329H251.825L254.304 213.069C254.336 212.889 254.43 212.727 254.57 212.609C254.71 212.492 254.886 212.427 255.069 212.426C255.254 212.433 255.43 212.506 255.565 212.633C255.7 212.759 255.785 212.931 255.803 213.115L257.257 227.329Z" fill="#C6C6C6"/>
<path d="M271.807 199.589H238.147C237.944 199.589 237.75 199.509 237.606 199.365C237.463 199.222 237.382 199.027 237.382 198.824C237.382 198.621 237.463 198.427 237.606 198.283C237.75 198.14 237.944 198.059 238.147 198.059H271.807C272.01 198.059 272.204 198.14 272.348 198.283C272.491 198.427 272.572 198.621 272.572 198.824C272.568 199.026 272.486 199.218 272.344 199.361C272.201 199.503 272.009 199.585 271.807 199.589Z" fill="#C6C6C6"/>
<path d="M259.032 203.935C258.881 203.932 258.734 203.886 258.609 203.802C258.485 203.717 258.387 203.599 258.328 203.46L255.972 197.371L252.575 203.047C252.465 203.216 252.294 203.337 252.098 203.386C251.902 203.434 251.695 203.406 251.519 203.307C251.432 203.255 251.357 203.187 251.297 203.106C251.237 203.024 251.193 202.932 251.169 202.834C251.145 202.736 251.14 202.634 251.156 202.534C251.171 202.434 251.206 202.338 251.259 202.252L255.436 195.275C255.504 195.147 255.609 195.044 255.738 194.978C255.866 194.912 256.012 194.888 256.155 194.908C256.298 194.917 256.436 194.967 256.552 195.05C256.668 195.134 256.759 195.249 256.813 195.382L259.873 202.91C259.91 203.003 259.929 203.103 259.927 203.203C259.926 203.304 259.905 203.403 259.865 203.496C259.825 203.588 259.768 203.672 259.695 203.742C259.623 203.812 259.538 203.867 259.445 203.904C259.314 203.961 259.169 203.971 259.032 203.935Z" fill="#C6C6C6"/>
<path d="M264.494 279.731C263.664 279.731 262.854 279.485 262.164 279.024C261.475 278.563 260.938 277.909 260.62 277.143C260.303 276.377 260.22 275.534 260.382 274.721C260.544 273.907 260.943 273.16 261.529 272.574C262.115 271.988 262.862 271.589 263.676 271.427C264.489 271.265 265.332 271.348 266.098 271.665C266.864 271.983 267.519 272.52 267.979 273.209C268.44 273.899 268.686 274.709 268.686 275.538C268.686 276.089 268.577 276.634 268.367 277.143C268.156 277.651 267.847 278.113 267.458 278.503C267.069 278.892 266.606 279.201 266.098 279.411C265.589 279.622 265.044 279.731 264.494 279.731ZM264.494 272.876C263.967 272.876 263.452 273.032 263.014 273.325C262.577 273.617 262.235 274.033 262.034 274.52C261.832 275.006 261.78 275.541 261.882 276.058C261.985 276.574 262.239 277.049 262.611 277.421C262.983 277.793 263.458 278.047 263.974 278.149C264.491 278.252 265.026 278.199 265.512 277.998C265.999 277.796 266.415 277.455 266.707 277.017C267 276.58 267.156 276.065 267.156 275.538C267.156 275.189 267.087 274.843 266.953 274.52C266.819 274.197 266.623 273.903 266.376 273.656C266.129 273.409 265.835 273.213 265.512 273.079C265.189 272.945 264.843 272.876 264.494 272.876Z" fill="#C6C6C6"/>
<path d="M313.591 128.398C338.347 215.195 310.531 255.281 300.143 285.988H149.07V135.359L313.591 128.398Z" fill="#FCFCFC"/>
<path d="M300.143 286.676H149.07C148.978 286.676 148.886 286.658 148.801 286.623C148.716 286.587 148.638 286.535 148.573 286.47C148.507 286.405 148.456 286.327 148.42 286.242C148.385 286.156 148.367 286.065 148.367 285.972V135.359C148.365 135.269 148.38 135.179 148.413 135.095C148.446 135.01 148.495 134.933 148.557 134.868C148.62 134.802 148.695 134.75 148.777 134.714C148.86 134.677 148.949 134.657 149.04 134.655L313.561 127.694C313.719 127.672 313.879 127.712 314.007 127.806C314.136 127.901 314.223 128.042 314.249 128.199C335.134 201.333 318.763 241.419 306.813 270.626C304.58 276.119 302.453 281.336 300.8 286.202C300.755 286.34 300.667 286.461 300.549 286.546C300.431 286.631 300.288 286.677 300.143 286.676ZM149.759 285.269H299.699C301.336 280.48 303.401 275.431 305.589 270.091C317.432 241.113 333.634 201.455 313.117 129.117L149.759 136.032V285.269Z" fill="#32323B"/>
<path d="M278.799 279.73C278.702 279.733 278.606 279.715 278.516 279.679C278.426 279.642 278.346 279.586 278.279 279.516C278.207 279.445 278.15 279.36 278.111 279.267C278.073 279.174 278.053 279.074 278.053 278.973C278.053 278.872 278.073 278.772 278.111 278.679C278.15 278.585 278.207 278.501 278.279 278.43C292.55 262.152 302.076 242.269 305.819 220.948C305.835 220.848 305.872 220.753 305.926 220.669C305.979 220.584 306.05 220.51 306.133 220.453C306.216 220.396 306.309 220.356 306.407 220.336C306.506 220.316 306.608 220.316 306.706 220.336C306.904 220.369 307.081 220.48 307.199 220.643C307.316 220.806 307.365 221.009 307.334 221.208C303.524 242.836 293.843 263.001 279.35 279.501C279.204 279.647 279.006 279.73 278.799 279.73Z" fill="#C6C6C6"/>
<path d="M314.846 132.161C314.968 134.838 275.249 195.64 312.78 285.972H459.767V135.358L314.846 132.161Z" fill="#FCFCFC"/>
<path d="M459.783 286.677H312.78C312.641 286.677 312.505 286.634 312.39 286.555C312.275 286.476 312.187 286.363 312.138 286.233C296.96 249.697 284.751 193.821 312.826 135.115C313.328 134.123 313.767 133.101 314.142 132.055C314.14 131.964 314.157 131.874 314.191 131.79C314.226 131.706 314.276 131.629 314.341 131.565C314.411 131.501 314.493 131.452 314.582 131.42C314.672 131.389 314.766 131.376 314.861 131.382L459.783 134.641C459.967 134.645 460.142 134.721 460.27 134.852C460.399 134.984 460.471 135.16 460.471 135.344V285.958C460.473 286.05 460.457 286.142 460.423 286.228C460.39 286.314 460.34 286.393 460.276 286.46C460.212 286.527 460.135 286.58 460.051 286.617C459.966 286.655 459.875 286.675 459.783 286.677ZM313.255 285.269H459.079V136.048L315.381 132.866C315.182 133.401 314.785 134.243 314.081 135.712C286.342 193.729 298.261 248.993 313.255 285.269Z" fill="#32323B"/>
<path d="M335.241 274.895C335.078 274.894 334.919 274.841 334.787 274.745C334.656 274.649 334.557 274.514 334.506 274.36C330.941 262.364 334.414 255.235 334.506 254.944C334.575 254.807 334.683 254.693 334.816 254.616C334.95 254.54 335.103 254.505 335.256 254.515C335.408 254.531 335.552 254.592 335.669 254.69C335.787 254.788 335.872 254.919 335.914 255.066C338.585 262.504 343.511 268.922 350.005 273.426C350.173 273.538 350.289 273.712 350.33 273.91C350.37 274.108 350.33 274.313 350.219 274.482C350.104 274.651 349.928 274.768 349.728 274.808C349.527 274.848 349.319 274.808 349.148 274.696C342.932 270.42 338.086 264.437 335.195 257.468C333.906 262.886 334.155 268.556 335.914 273.839C335.971 274.032 335.951 274.24 335.856 274.417C335.762 274.595 335.601 274.728 335.409 274.788C335.359 274.833 335.302 274.869 335.241 274.895Z" fill="#C6C6C6"/>
<path d="M144.786 84.0889L104.96 128.398H133.74L167.874 84.0889H144.786Z" fill="#FCFCFC"/>
<path d="M133.74 129.086H104.96C104.825 129.087 104.692 129.048 104.578 128.975C104.464 128.901 104.374 128.797 104.318 128.673C104.266 128.549 104.25 128.413 104.272 128.281C104.293 128.148 104.352 128.025 104.44 127.924L144.281 83.6301C144.345 83.5534 144.424 83.4917 144.514 83.4493C144.604 83.407 144.702 83.3851 144.802 83.3853H167.889C168.021 83.3847 168.15 83.4218 168.261 83.4923C168.372 83.5628 168.461 83.6637 168.516 83.7831C168.588 83.8923 168.625 84.0199 168.625 84.1503C168.625 84.2806 168.588 84.4082 168.516 84.5175L134.398 128.887C134.313 128.973 134.209 129.036 134.094 129.071C133.979 129.105 133.857 129.111 133.74 129.086ZM106.521 127.694H133.403L166.451 84.8541H145.031L106.521 127.694Z" fill="#32323B"/>
<path d="M167.874 84.0889L133.74 128.398H162.534L190.977 84.0889H167.874Z" fill="#32323B"/>
<path d="M162.534 129.087H133.74C133.611 129.085 133.484 129.049 133.374 128.981C133.263 128.914 133.173 128.818 133.112 128.704C133.05 128.592 133.016 128.465 133.016 128.337C133.016 128.208 133.05 128.082 133.112 127.97L167.247 83.5996C167.312 83.5158 167.396 83.4476 167.491 83.4C167.586 83.3523 167.691 83.3265 167.798 83.3242H190.901C191.026 83.3259 191.149 83.3612 191.257 83.4266C191.364 83.492 191.452 83.5849 191.512 83.6959C191.571 83.8068 191.6 83.9316 191.594 84.0573C191.589 84.1829 191.55 84.3049 191.482 84.4105L163.116 128.765C163.054 128.863 162.968 128.944 162.866 129.001C162.765 129.057 162.651 129.086 162.534 129.087ZM135.102 127.694H162.091L189.631 84.8542H168.211L135.102 127.694Z" fill="#32323B"/>
<path d="M190.977 84.0889L162.534 128.398H191.314L214.08 84.0889H190.977Z" fill="#FCFCFC"/>
<path d="M191.314 129.087H162.534C162.41 129.087 162.288 129.055 162.181 128.993C162.074 128.931 161.984 128.842 161.922 128.735C161.858 128.626 161.824 128.502 161.824 128.375C161.824 128.249 161.858 128.124 161.922 128.016L190.365 83.6455C190.43 83.547 190.519 83.4662 190.623 83.4102C190.727 83.3541 190.844 83.3246 190.962 83.3242H214.065C214.182 83.3274 214.297 83.3599 214.398 83.4187C214.5 83.4775 214.585 83.5607 214.646 83.6608C214.707 83.7655 214.738 83.8842 214.738 84.0051C214.738 84.1259 214.707 84.2447 214.646 84.3493L191.895 128.719C191.838 128.825 191.754 128.914 191.652 128.979C191.55 129.043 191.434 129.08 191.314 129.087ZM163.774 127.694H190.855L212.902 84.8542H191.329L163.774 127.694Z" fill="#32323B"/>
<path d="M214.08 84.0889L191.314 128.398H220.108L237.168 84.0889H214.08Z" fill="#32323B"/>
<path d="M220.108 129.087H191.314C191.195 129.086 191.079 129.057 190.975 129.001C190.871 128.945 190.782 128.864 190.717 128.765C190.656 128.661 190.625 128.542 190.625 128.421C190.625 128.3 190.656 128.181 190.717 128.077L213.468 83.7067C213.527 83.5914 213.617 83.4946 213.728 83.4271C213.838 83.3596 213.966 83.324 214.095 83.3242H237.183C237.296 83.3245 237.408 83.3522 237.508 83.4049C237.609 83.4576 237.695 83.5338 237.759 83.6269C237.824 83.7201 237.865 83.8274 237.879 83.9399C237.893 84.0523 237.88 84.1666 237.841 84.2728L220.781 128.643C220.734 128.781 220.643 128.9 220.521 128.98C220.399 129.06 220.254 129.098 220.108 129.087ZM192.461 127.694H219.619L236.143 84.8542H214.493L192.461 127.694Z" fill="#32323B"/>
<path d="M237.168 84.0889L220.108 128.398H248.888L260.271 84.0889H237.168Z" fill="#FCFCFC"/>
<path d="M248.887 129.086H220.108C219.994 129.09 219.88 129.065 219.777 129.013C219.675 128.961 219.587 128.885 219.522 128.791C219.457 128.696 219.416 128.587 219.403 128.473C219.391 128.359 219.407 128.244 219.45 128.138L236.51 83.8443C236.56 83.7098 236.649 83.5939 236.767 83.5118C236.885 83.4298 237.024 83.3857 237.168 83.3853H260.271C260.377 83.3875 260.482 83.4134 260.577 83.461C260.672 83.5086 260.756 83.5768 260.822 83.6607C260.885 83.7446 260.929 83.8418 260.951 83.9451C260.972 84.0484 260.97 84.1551 260.944 84.2574L249.561 128.627C249.512 128.766 249.42 128.885 249.299 128.967C249.178 129.05 249.034 129.091 248.887 129.086ZM221.118 127.694H248.321L259.337 84.8541H237.611L221.118 127.694Z" fill="#32323B"/>
<path d="M260.271 84.0889L248.887 128.398H277.682L283.358 84.0889H260.271Z" fill="#32323B"/>
<path d="M277.682 129.086H248.887C248.782 129.087 248.678 129.064 248.582 129.019C248.487 128.974 248.403 128.908 248.337 128.826C248.27 128.741 248.223 128.641 248.202 128.535C248.181 128.429 248.185 128.319 248.214 128.214L259.597 83.9208C259.635 83.7696 259.721 83.6351 259.843 83.5382C259.965 83.4413 260.115 83.3875 260.271 83.3853H283.358C283.46 83.3869 283.56 83.4095 283.652 83.4516C283.744 83.4938 283.826 83.5545 283.894 83.6301C284.017 83.7862 284.077 83.9827 284.062 84.1809L278.371 128.551C278.335 128.706 278.247 128.844 278.122 128.942C277.996 129.039 277.841 129.09 277.682 129.086ZM249.851 127.694H277.116L282.624 84.8541H260.806L249.851 127.694Z" fill="#32323B"/>
<path d="M283.358 84.0889L277.682 128.398H306.461V84.0889H283.358Z" fill="#FCFCFC"/>
<path d="M306.461 129.087H277.682C277.581 129.09 277.481 129.071 277.389 129.031C277.296 128.992 277.214 128.932 277.147 128.857C277.024 128.701 276.964 128.504 276.978 128.306L282.67 83.9362C282.689 83.7672 282.77 83.6111 282.897 83.4981C283.024 83.3851 283.188 83.3232 283.358 83.3242H306.461C306.647 83.3281 306.824 83.4035 306.955 83.5347C307.086 83.6658 307.161 83.8426 307.165 84.028V128.398C307.161 128.582 307.085 128.757 306.954 128.886C306.822 129.015 306.645 129.087 306.461 129.087ZM278.478 127.694H305.758V84.8542H283.986L278.478 127.694Z" fill="#32323B"/>
<path d="M306.461 84.0889V128.398H335.241L329.564 84.0889H306.461Z" fill="#32323B"/>
<path d="M335.241 129.087H306.462C306.277 129.087 306.101 129.015 305.969 128.886C305.838 128.757 305.762 128.582 305.758 128.398V84.1506C305.762 83.9652 305.837 83.7884 305.968 83.6572C306.099 83.5261 306.276 83.4507 306.462 83.4468H329.565C329.735 83.4457 329.899 83.5077 330.026 83.6207C330.153 83.7337 330.234 83.8897 330.253 84.0588L335.945 128.429C335.959 128.627 335.899 128.823 335.776 128.98C335.699 129.033 335.612 129.07 335.52 129.089C335.428 129.107 335.333 129.106 335.241 129.087ZM307.165 127.694H334.445L328.937 84.8544H307.165V127.694Z" fill="#32323B"/>
<path d="M329.564 84.0889L335.241 128.398H364.035L352.652 84.0889H329.564Z" fill="#FCFCFC"/>
<path d="M364.035 129.087H335.241C335.073 129.088 334.91 129.028 334.784 128.918C334.657 128.808 334.575 128.656 334.552 128.49L328.861 84.1198C328.846 83.9216 328.906 83.7252 329.029 83.569C329.096 83.4935 329.179 83.4327 329.271 83.3906C329.363 83.3485 329.463 83.3259 329.564 83.3242H352.652C352.808 83.3265 352.958 83.3803 353.08 83.4772C353.202 83.574 353.288 83.7086 353.325 83.8597L364.709 128.153C364.738 128.258 364.742 128.368 364.721 128.474C364.699 128.58 364.653 128.68 364.586 128.765C364.526 128.858 364.445 128.936 364.349 128.992C364.253 129.048 364.146 129.08 364.035 129.087ZM335.868 127.694H363.071L352.055 84.8542H330.36L335.868 127.694Z" fill="#32323B"/>
<path d="M352.652 84.0889L364.035 128.398H392.814L375.755 84.0889H352.652Z" fill="#32323B"/>
<path d="M392.815 129.087H364.035C363.881 129.088 363.731 129.037 363.609 128.943C363.487 128.849 363.4 128.716 363.362 128.566L351.979 84.1963C351.953 84.094 351.951 83.9873 351.972 83.884C351.993 83.7808 352.037 83.6836 352.101 83.5996C352.167 83.5158 352.25 83.4476 352.346 83.4C352.441 83.3523 352.546 83.3265 352.652 83.3242H375.755C375.898 83.3246 376.038 83.3688 376.156 83.4508C376.273 83.5328 376.363 83.6488 376.413 83.7832L393.472 128.153C393.516 128.259 393.532 128.375 393.52 128.489C393.507 128.603 393.466 128.712 393.401 128.806C393.335 128.9 393.248 128.977 393.145 129.028C393.043 129.08 392.929 129.105 392.815 129.102V129.087ZM364.601 127.694H391.835L375.311 84.8542H353.585L364.601 127.694Z" fill="#32323B"/>
<path d="M375.755 84.0889L392.815 128.398H421.609L398.843 84.0889H375.755Z" fill="#FCFCFC"/>
<path d="M421.609 129.087H392.815C392.674 129.091 392.536 129.05 392.42 128.97C392.305 128.89 392.218 128.776 392.172 128.643L375.097 84.2728C375.058 84.1666 375.045 84.0523 375.059 83.9399C375.073 83.8274 375.114 83.7201 375.179 83.6269C375.243 83.5338 375.33 83.4576 375.43 83.4049C375.53 83.3522 375.642 83.3245 375.755 83.3242H398.843C398.973 83.324 399.1 83.3596 399.21 83.4271C399.321 83.4946 399.411 83.5914 399.47 83.7067L422.221 128.077C422.282 128.181 422.314 128.3 422.314 128.421C422.314 128.542 422.282 128.661 422.221 128.765C422.154 128.866 422.063 128.948 421.956 129.004C421.849 129.06 421.73 129.089 421.609 129.087ZM393.304 127.694H420.462L398.43 84.8542H376.841L393.304 127.694Z" fill="#32323B"/>
<path d="M398.843 84.0889L421.609 128.398H450.388L421.946 84.0889H398.843Z" fill="#32323B"/>
<path d="M450.388 129.086H421.609C421.481 129.088 421.355 129.055 421.244 128.99C421.134 128.925 421.043 128.832 420.982 128.719L398.261 84.4104C398.201 84.3057 398.169 84.187 398.169 84.0661C398.169 83.9452 398.201 83.8265 398.261 83.7219C398.323 83.6217 398.408 83.5385 398.509 83.4797C398.611 83.4209 398.726 83.3885 398.843 83.3853H421.946C422.064 83.3856 422.18 83.4152 422.284 83.4712C422.388 83.5272 422.477 83.6081 422.542 83.7066L450.985 128.077C451.05 128.185 451.084 128.31 451.084 128.436C451.084 128.563 451.05 128.687 450.985 128.796C450.917 128.889 450.827 128.965 450.723 129.016C450.619 129.066 450.504 129.091 450.388 129.086ZM422.038 127.694H449.119L421.579 84.8541H400.006L422.038 127.694Z" fill="#32323B"/>
<path d="M421.946 84.0889L450.388 128.398H479.183L445.049 84.0889H421.946Z" fill="#FCFCFC"/>
<path d="M479.183 129.086H450.389C450.272 129.086 450.158 129.057 450.056 129C449.955 128.944 449.869 128.863 449.807 128.765L421.364 84.4716C421.296 84.366 421.257 84.244 421.252 84.1183C421.247 83.9926 421.275 83.8678 421.335 83.7569C421.394 83.646 421.482 83.553 421.589 83.4876C421.697 83.4223 421.82 83.3869 421.946 83.3853H445.049C445.155 83.3875 445.26 83.4134 445.355 83.461C445.45 83.5086 445.534 83.5768 445.6 83.6607L479.734 128.031C479.809 128.136 479.855 128.259 479.869 128.388C479.882 128.516 479.862 128.646 479.81 128.765C479.742 128.868 479.649 128.952 479.539 129.008C479.429 129.064 479.306 129.091 479.183 129.086ZM450.771 127.694H477.821L444.758 84.8541H423.338L450.771 127.694Z" fill="#32323B"/>
<path d="M445.049 84.0889L479.183 128.398H507.962L468.136 84.0889H445.049Z" fill="#32323B"/>
<path d="M507.962 129.087H479.183C479.075 129.089 478.968 129.066 478.87 129.021C478.772 128.976 478.686 128.91 478.617 128.827L444.483 84.4565C444.415 84.346 444.379 84.2189 444.379 84.0893C444.379 83.9598 444.415 83.8327 444.483 83.7221C444.537 83.6016 444.625 83.4996 444.736 83.4289C444.848 83.3582 444.978 83.3218 445.11 83.3243H468.198C468.297 83.3242 468.395 83.3461 468.485 83.3884C468.575 83.4307 468.655 83.4925 468.718 83.5691L508.498 127.939C508.586 128.04 508.645 128.164 508.666 128.297C508.688 128.429 508.672 128.565 508.62 128.689C508.561 128.812 508.467 128.915 508.35 128.986C508.234 129.056 508.099 129.091 507.962 129.087ZM479.52 127.694H506.402L467.83 84.8543H446.41L479.52 127.694Z" fill="#32323B"/>
<path d="M104.96 128.398H133.74V152.71C133.74 156.439 132.258 160.015 129.621 162.652C126.985 165.289 123.408 166.77 119.679 166.77H119.021C115.292 166.77 111.716 165.289 109.079 162.652C106.442 160.015 104.96 156.439 104.96 152.71V128.398Z" fill="#FCFCFC"/>
<path d="M119.679 167.473H119.021C115.107 167.469 111.354 165.912 108.586 163.144C105.818 160.376 104.261 156.623 104.257 152.709V128.397C104.261 128.212 104.336 128.035 104.467 127.904C104.598 127.773 104.775 127.697 104.96 127.693H133.74C133.926 127.693 134.105 127.768 134.237 127.9C134.369 128.031 134.444 128.21 134.444 128.397V152.709C134.44 156.623 132.883 160.376 130.115 163.144C127.347 165.912 123.594 167.469 119.679 167.473ZM105.664 129.086V152.709C105.668 156.25 107.077 159.645 109.581 162.149C112.085 164.653 115.48 166.062 119.021 166.066H119.679C123.222 166.062 126.618 164.654 129.125 162.15C131.631 159.646 133.043 156.251 133.051 152.709V129.086H105.664Z" fill="#32323B"/>
<path d="M133.74 128.398H162.519V152.71C162.519 156.439 161.038 160.015 158.401 162.652C155.764 165.289 152.187 166.77 148.458 166.77H147.8C144.071 166.77 140.495 165.289 137.858 162.652C135.221 160.015 133.74 156.439 133.74 152.71V128.398Z" fill="#32323B"/>
<path d="M148.458 167.473H147.816C143.901 167.469 140.148 165.912 137.38 163.144C134.612 160.376 133.055 156.623 133.051 152.709V128.397C133.051 128.213 133.123 128.036 133.252 127.905C133.381 127.773 133.556 127.697 133.74 127.693H162.534C162.718 127.697 162.893 127.773 163.022 127.905C163.151 128.036 163.223 128.213 163.223 128.397V152.709C163.219 156.623 161.662 160.376 158.894 163.144C156.126 165.912 152.373 167.469 148.458 167.473ZM134.444 129.086V152.709C134.452 156.251 135.864 159.646 138.37 162.15C140.877 164.654 144.273 166.062 147.816 166.066H148.458C152.001 166.062 155.398 164.654 157.904 162.15C160.411 159.646 161.823 156.251 161.831 152.709V129.086H134.444Z" fill="#32323B"/>
<path d="M162.534 128.398H191.314V152.71C191.314 156.439 189.832 160.015 187.195 162.652C184.559 165.289 180.982 166.77 177.253 166.77H176.595C172.866 166.77 169.29 165.289 166.653 162.652C164.016 160.015 162.534 156.439 162.534 152.71V128.398Z" fill="#FCFCFC"/>
<path d="M177.253 167.473H176.595C172.68 167.469 168.927 165.912 166.159 163.144C163.391 160.376 161.835 156.623 161.83 152.709V128.397C161.834 128.212 161.91 128.035 162.041 127.904C162.172 127.773 162.349 127.697 162.534 127.693H191.314C191.499 127.697 191.676 127.773 191.807 127.904C191.938 128.035 192.013 128.212 192.017 128.397V152.709C192.013 156.623 190.456 160.376 187.688 163.144C184.92 165.912 181.167 167.469 177.253 167.473ZM163.223 129.086V152.709C163.231 156.251 164.643 159.646 167.149 162.15C169.656 164.654 173.052 166.062 176.595 166.066H177.253C180.796 166.062 184.192 164.654 186.699 162.15C189.205 159.646 190.617 156.251 190.625 152.709V129.086H163.223Z" fill="#32323B"/>
<path d="M191.314 128.398H220.093V152.71C220.093 156.439 218.612 160.015 215.975 162.652C213.338 165.289 209.761 166.77 206.032 166.77H205.374C201.645 166.77 198.069 165.289 195.432 162.652C192.795 160.015 191.314 156.439 191.314 152.71V128.398Z" fill="#32323B"/>
<path d="M206.032 167.473H205.39C201.475 167.469 197.722 165.912 194.954 163.144C192.186 160.376 190.629 156.623 190.625 152.709V128.397C190.625 128.213 190.697 128.036 190.826 127.905C190.955 127.773 191.13 127.697 191.314 127.693H220.108C220.292 127.697 220.467 127.773 220.596 127.905C220.725 128.036 220.797 128.213 220.797 128.397V152.709C220.793 156.623 219.236 160.376 216.468 163.144C213.7 165.912 209.947 167.469 206.032 167.473ZM192.017 129.086V152.709C192.026 156.251 193.437 159.646 195.944 162.15C198.45 164.654 201.847 166.062 205.39 166.066H206.032C209.575 166.062 212.971 164.654 215.478 162.15C217.984 159.646 219.396 156.251 219.404 152.709V129.086H192.017Z" fill="#32323B"/>
<path d="M220.108 128.398H248.888V152.71C248.888 156.439 247.406 160.015 244.769 162.652C242.132 165.289 238.556 166.77 234.827 166.77H234.169C230.44 166.77 226.863 165.289 224.227 162.652C221.59 160.015 220.108 156.439 220.108 152.71V128.398Z" fill="#FCFCFC"/>
<path d="M234.827 167.473H234.169C230.254 167.469 226.501 165.912 223.733 163.144C220.965 160.376 219.408 156.623 219.404 152.709V128.397C219.404 128.21 219.478 128.031 219.61 127.9C219.742 127.768 219.921 127.693 220.108 127.693H248.887C249.073 127.697 249.25 127.773 249.381 127.904C249.512 128.035 249.587 128.212 249.591 128.397V152.709C249.587 156.623 248.03 160.376 245.262 163.144C242.494 165.912 238.741 167.469 234.827 167.473ZM220.781 129.086V152.709C220.789 156.251 222.201 159.646 224.708 162.15C227.214 164.654 230.611 166.062 234.154 166.066H234.811C238.353 166.062 241.748 164.653 244.252 162.149C246.756 159.645 248.164 156.25 248.168 152.709V129.086H220.781Z" fill="#32323B"/>
<path d="M248.887 128.398H277.667V152.71C277.667 156.436 276.188 160.01 273.554 162.647C270.92 165.283 267.348 166.766 263.621 166.77H262.963C259.234 166.77 255.658 165.289 253.021 162.652C250.384 160.015 248.903 156.439 248.903 152.71V128.398H248.887Z" fill="#32323B"/>
<path d="M263.621 167.473H262.979C259.062 167.473 255.305 165.918 252.533 163.15C249.762 160.381 248.203 156.626 248.199 152.709V128.397C248.203 128.212 248.278 128.035 248.41 127.904C248.541 127.773 248.717 127.697 248.903 127.693H277.697C277.881 127.697 278.057 127.773 278.185 127.905C278.314 128.036 278.386 128.213 278.386 128.397V152.709C278.382 156.623 276.825 160.376 274.057 163.144C271.289 165.912 267.536 167.469 263.621 167.473ZM249.607 129.086V152.709C249.615 156.251 251.027 159.646 253.533 162.15C256.04 164.654 259.436 166.062 262.979 166.066H263.621C267.164 166.062 270.561 164.654 273.067 162.15C275.574 159.646 276.986 156.251 276.994 152.709V129.086H249.607Z" fill="#32323B"/>
<path d="M277.682 128.398H306.461V152.71C306.461 156.439 304.98 160.015 302.343 162.652C299.706 165.289 296.13 166.77 292.401 166.77H291.743C288.014 166.77 284.437 165.289 281.8 162.652C279.163 160.015 277.682 156.439 277.682 152.71V128.398Z" fill="#FCFCFC"/>
<path d="M292.401 167.473H291.743C287.828 167.469 284.075 165.912 281.307 163.144C278.539 160.376 276.982 156.623 276.978 152.709V128.397C276.978 128.21 277.052 128.031 277.184 127.9C277.316 127.768 277.495 127.693 277.682 127.693H306.461C306.647 127.697 306.824 127.773 306.955 127.904C307.086 128.035 307.161 128.212 307.165 128.397V152.709C307.161 156.623 305.604 160.376 302.836 163.144C300.068 165.912 296.315 167.469 292.401 167.473ZM278.371 129.086V152.709C278.379 156.251 279.791 159.646 282.297 162.15C284.804 164.654 288.2 166.062 291.743 166.066H292.401C295.942 166.062 299.337 164.653 301.841 162.149C304.345 159.645 305.754 156.25 305.758 152.709V129.086H278.371Z" fill="#32323B"/>
<path d="M306.461 128.398H335.241V152.71C335.241 156.439 333.759 160.015 331.122 162.652C328.486 165.289 324.909 166.77 321.18 166.77H320.522C316.793 166.77 313.217 165.289 310.58 162.652C307.943 160.015 306.461 156.439 306.461 152.71V128.398Z" fill="#32323B"/>
<path d="M321.18 167.473H320.522C316.608 167.469 312.855 165.912 310.087 163.144C307.319 160.376 305.762 156.623 305.758 152.709V128.397C305.762 128.212 305.837 128.035 305.968 127.904C306.099 127.773 306.276 127.697 306.462 127.693H335.241C335.427 127.693 335.606 127.768 335.738 127.9C335.87 128.031 335.945 128.21 335.945 128.397V152.709C335.941 156.623 334.384 160.376 331.616 163.144C328.848 165.912 325.095 167.469 321.18 167.473ZM307.165 129.086V152.709C307.169 156.25 308.578 159.645 311.082 162.149C313.586 164.653 316.981 166.062 320.522 166.066H321.18C324.723 166.062 328.119 164.654 330.626 162.15C333.132 159.646 334.544 156.251 334.552 152.709V129.086H307.165Z" fill="#32323B"/>
<path d="M335.241 128.398H364.02V152.71C364.02 156.439 362.539 160.015 359.902 162.652C357.265 165.289 353.688 166.77 349.959 166.77H349.301C345.572 166.77 341.996 165.289 339.359 162.652C336.722 160.015 335.241 156.439 335.241 152.71V128.398Z" fill="#FCFCFC"/>
<path d="M349.959 167.473H349.301C345.387 167.469 341.634 165.912 338.866 163.144C336.098 160.376 334.541 156.623 334.537 152.709V128.397C334.537 128.213 334.609 128.036 334.738 127.905C334.866 127.773 335.041 127.697 335.225 127.693H364.02C364.205 127.697 364.382 127.773 364.513 127.904C364.644 128.035 364.72 128.212 364.724 128.397V152.709C364.72 156.623 363.163 160.376 360.395 163.144C357.627 165.912 353.874 167.469 349.959 167.473ZM335.944 129.086V152.709C335.953 156.251 337.364 159.646 339.871 162.15C342.377 164.654 345.774 166.062 349.317 166.066H349.959C353.502 166.062 356.899 164.654 359.405 162.15C361.911 159.646 363.323 156.251 363.331 152.709V129.086H335.944Z" fill="#32323B"/>
<path d="M364.035 128.398H392.815V152.71C392.815 156.439 391.333 160.015 388.696 162.652C386.059 165.289 382.483 166.77 378.754 166.77H378.096C374.367 166.77 370.79 165.289 368.154 162.652C365.517 160.015 364.035 156.439 364.035 152.71V128.398Z" fill="#32323B"/>
<path d="M378.754 167.473H378.096C374.182 167.469 370.428 165.912 367.66 163.144C364.892 160.376 363.336 156.623 363.332 152.709V128.397C363.335 128.212 363.411 128.035 363.542 127.904C363.673 127.773 363.85 127.697 364.035 127.693H392.815C393.001 127.693 393.18 127.768 393.312 127.9C393.444 128.031 393.518 128.21 393.518 128.397V152.709C393.514 156.623 391.958 160.376 389.19 163.144C386.422 165.912 382.669 167.469 378.754 167.473ZM364.739 129.086V152.709C364.743 156.25 366.152 159.645 368.656 162.149C371.16 164.653 374.555 166.062 378.096 166.066H378.754C382.299 166.066 385.7 164.66 388.21 162.155C390.719 159.651 392.133 156.254 392.141 152.709V129.086H364.739Z" fill="#32323B"/>
<path d="M392.815 128.398H421.594V152.71C421.594 156.439 420.112 160.015 417.476 162.652C414.839 165.289 411.262 166.77 407.533 166.77H406.875C403.146 166.77 399.57 165.289 396.933 162.652C394.296 160.015 392.815 156.439 392.815 152.71V128.398Z" fill="#FCFCFC"/>
<path d="M407.533 167.473H406.891C402.979 167.465 399.23 165.907 396.465 163.139C393.7 160.371 392.145 156.621 392.141 152.709V128.397C392.141 128.213 392.213 128.036 392.342 127.905C392.471 127.773 392.646 127.697 392.83 127.693H421.625C421.809 127.697 421.984 127.773 422.112 127.905C422.241 128.036 422.313 128.213 422.313 128.397V152.709C422.309 156.626 420.75 160.381 417.979 163.15C415.207 165.918 411.45 167.473 407.533 167.473ZM393.518 129.086V152.709C393.527 156.251 394.938 159.646 397.445 162.15C399.951 164.654 403.348 166.062 406.891 166.066H407.533C411.076 166.062 414.472 164.654 416.979 162.15C419.485 159.646 420.897 156.251 420.905 152.709V129.086H393.518Z" fill="#32323B"/>
<path d="M421.609 128.398H450.389V152.71C450.389 156.439 448.907 160.015 446.27 162.652C443.633 165.289 440.057 166.77 436.328 166.77H435.67C431.941 166.77 428.364 165.289 425.727 162.652C423.091 160.015 421.609 156.439 421.609 152.71V128.398Z" fill="#32323B"/>
<path d="M436.328 167.473H435.67C431.755 167.469 428.002 165.912 425.234 163.144C422.466 160.376 420.91 156.623 420.905 152.709V128.397C420.909 128.212 420.985 128.035 421.116 127.904C421.247 127.773 421.424 127.697 421.609 127.693H450.389C450.574 127.697 450.751 127.773 450.882 127.904C451.013 128.035 451.089 128.212 451.092 128.397V152.709C451.088 156.623 449.532 160.376 446.764 163.144C443.996 165.912 440.242 167.469 436.328 167.473ZM422.298 129.086V152.709C422.306 156.251 423.718 159.646 426.224 162.15C428.731 164.654 432.127 166.062 435.67 166.066H436.328C439.869 166.062 443.264 164.653 445.768 162.149C448.272 159.645 449.681 156.25 449.685 152.709V129.086H422.298Z" fill="#32323B"/>
<path d="M450.389 128.398H479.168V152.71C479.168 156.439 477.686 160.015 475.05 162.652C472.413 165.289 468.836 166.77 465.107 166.77H464.449C460.72 166.77 457.144 165.289 454.507 162.652C451.87 160.015 450.389 156.439 450.389 152.71V128.398Z" fill="#FCFCFC"/>
<path d="M465.107 167.473H464.465C460.547 167.473 456.79 165.918 454.019 163.15C451.248 160.381 449.689 156.626 449.685 152.709V128.397C449.689 128.212 449.764 128.035 449.895 127.904C450.026 127.773 450.203 127.697 450.389 127.693H479.183C479.367 127.697 479.542 127.773 479.671 127.905C479.8 128.036 479.872 128.213 479.872 128.397V152.709C479.868 156.623 478.311 160.376 475.543 163.144C472.775 165.912 469.022 167.469 465.107 167.473ZM451.092 129.086V152.709C451.1 156.251 452.512 159.646 455.019 162.15C457.525 164.654 460.922 166.062 464.465 166.066H465.107C468.65 166.062 472.046 164.654 474.553 162.15C477.059 159.646 478.471 156.251 478.479 152.709V129.086H451.092Z" fill="#32323B"/>
<path d="M479.183 128.398H507.962V152.71C507.962 156.439 506.481 160.015 503.844 162.652C501.207 165.289 497.631 166.77 493.902 166.77H493.244C489.515 166.77 485.938 165.289 483.301 162.652C480.665 160.015 479.183 156.439 479.183 152.71V128.398Z" fill="#32323B"/>
<path d="M493.902 167.473H493.244C489.329 167.469 485.576 165.912 482.808 163.144C480.04 160.376 478.483 156.623 478.479 152.709V128.397C478.479 128.21 478.553 128.031 478.685 127.9C478.817 127.768 478.996 127.693 479.183 127.693H507.962C508.148 127.697 508.324 127.773 508.456 127.904C508.587 128.035 508.662 128.212 508.666 128.397V152.709C508.662 156.623 507.105 160.376 504.337 163.144C501.569 165.912 497.816 167.469 493.902 167.473ZM479.872 129.086V152.709C479.88 156.251 481.292 159.646 483.798 162.15C486.304 164.654 489.701 166.062 493.244 166.066H493.902C497.443 166.062 500.838 164.653 503.342 162.149C505.846 159.645 507.254 156.25 507.258 152.709V129.086H479.872Z" fill="#32323B"/>
<path d="M214.065 212.93H398.843V260.972H214.065V212.93Z" fill="#FCFCFC"/>
<path d="M398.843 261.63H214.08C213.893 261.63 213.714 261.556 213.582 261.424C213.45 261.292 213.376 261.113 213.376 260.926V212.884C213.376 212.792 213.395 212.701 213.43 212.617C213.466 212.532 213.518 212.456 213.583 212.392C213.649 212.327 213.727 212.277 213.812 212.243C213.897 212.21 213.988 212.193 214.08 212.195H398.843C398.935 212.193 399.026 212.21 399.111 212.243C399.196 212.277 399.274 212.327 399.34 212.392C399.405 212.456 399.457 212.532 399.493 212.617C399.528 212.701 399.547 212.792 399.547 212.884V260.926C399.547 261.113 399.472 261.292 399.34 261.424C399.209 261.556 399.03 261.63 398.843 261.63ZM214.769 260.222H398.154V213.634H214.769V260.222Z" fill="#32323B"/>
<path d="M388.347 213.634H388.133L306.461 185.436L224.79 213.603C224.618 213.645 224.437 213.622 224.282 213.536C224.127 213.451 224.01 213.31 223.954 213.142C223.898 212.974 223.907 212.792 223.98 212.63C224.053 212.469 224.183 212.341 224.346 212.272L306.232 184.028C306.381 183.982 306.541 183.982 306.691 184.028L388.576 212.272C388.753 212.331 388.898 212.458 388.981 212.624C389.064 212.79 389.078 212.983 389.02 213.159C388.97 213.298 388.879 213.418 388.758 213.502C388.638 213.587 388.494 213.633 388.347 213.634Z" fill="#32323B"/>
<path d="M306.461 191.878C309.951 191.878 312.78 189.048 312.78 185.559C312.78 182.069 309.951 179.24 306.461 179.24C302.972 179.24 300.142 182.069 300.142 185.559C300.142 189.048 302.972 191.878 306.461 191.878Z" fill="#B7005C"/>
<path d="M255.344 245.183C254.718 245.605 254.046 245.954 253.34 246.223C252.522 246.547 251.677 246.798 250.815 246.973C249.807 247.167 248.782 247.264 247.755 247.263C246.195 247.288 244.643 247.045 243.165 246.544C241.9 246.116 240.737 245.429 239.753 244.525C238.814 243.634 238.083 242.548 237.611 241.342C237.102 240.015 236.848 238.603 236.862 237.181C236.852 235.311 237.2 233.457 237.887 231.719C238.529 230.061 239.496 228.547 240.731 227.268C241.966 225.988 243.444 224.968 245.078 224.268C248.502 222.88 252.321 222.82 255.788 224.099C257.101 224.575 258.284 225.351 259.246 226.364L254.059 231.719C253.68 231.162 253.149 230.727 252.529 230.464C251.848 230.192 251.12 230.057 250.387 230.066C249.618 230.056 248.857 230.229 248.168 230.571C247.51 230.896 246.926 231.354 246.455 231.918C245.977 232.511 245.609 233.184 245.369 233.907C245.107 234.68 244.977 235.492 244.986 236.309C244.954 236.857 245.042 237.406 245.244 237.918C245.445 238.429 245.755 238.89 246.152 239.27C246.549 239.65 247.024 239.939 247.544 240.117C248.064 240.295 248.616 240.358 249.163 240.302C249.956 240.306 250.74 240.133 251.458 239.797C252.126 239.475 252.74 239.051 253.279 238.542L256.951 244.005C256.44 244.43 255.904 244.824 255.344 245.183Z" fill="#32323B"/>
<path d="M260.561 246.621L264.585 223.824H272.082L269.175 240.21H276.825L275.693 246.59L260.561 246.621Z" fill="#32323B"/>
<path d="M291.284 247.186C289.636 247.217 287.995 246.963 286.434 246.437C285.118 245.98 283.913 245.25 282.899 244.295C281.947 243.373 281.206 242.256 280.727 241.021C280.224 239.681 279.975 238.259 279.992 236.828C279.975 235.011 280.312 233.207 280.987 231.519C281.623 229.892 282.587 228.412 283.819 227.173C285.051 225.933 286.524 224.96 288.147 224.313C291.526 222.998 295.255 222.89 298.704 224.007C300.025 224.454 301.231 225.185 302.239 226.149C303.199 227.064 303.942 228.183 304.411 229.423C304.926 230.76 305.181 232.183 305.161 233.615C305.169 235.431 304.836 237.231 304.182 238.924C303.55 240.537 302.597 242.005 301.382 243.239C300.127 244.487 298.633 245.471 296.991 246.131C295.177 246.857 293.237 247.216 291.284 247.186ZM297.404 234.151C297.407 233.598 297.314 233.05 297.128 232.529C296.953 232.039 296.677 231.59 296.318 231.213C295.95 230.824 295.5 230.521 295.002 230.326C294.432 230.102 293.824 229.993 293.212 230.005C292.425 229.997 291.647 230.18 290.947 230.54C290.282 230.881 289.693 231.355 289.218 231.932C288.747 232.535 288.379 233.212 288.132 233.937C287.878 234.67 287.749 235.44 287.75 236.216C287.745 236.769 287.838 237.318 288.025 237.838C288.192 238.333 288.464 238.787 288.821 239.169C289.193 239.549 289.642 239.846 290.136 240.041C290.717 240.265 291.335 240.374 291.957 240.363C292.741 240.375 293.517 240.202 294.221 239.858C294.875 239.512 295.453 239.039 295.92 238.465C296.402 237.873 296.775 237.199 297.021 236.476C297.277 235.707 297.407 234.901 297.404 234.09V234.151Z" fill="#32323B"/>
<path d="M323.444 230.617C323.054 230.168 322.567 229.813 322.022 229.576C321.388 229.29 320.698 229.149 320.002 229.163C319.432 229.157 318.869 229.294 318.365 229.561C318.142 229.664 317.954 229.831 317.826 230.041C317.698 230.25 317.635 230.493 317.646 230.739C317.643 230.948 317.699 231.153 317.807 231.331C317.916 231.51 318.072 231.654 318.258 231.749C318.832 232.046 319.431 232.291 320.048 232.483C320.957 232.77 321.838 233.138 322.679 233.585C323.4 233.951 324.061 234.426 324.638 234.992C325.167 235.518 325.588 236.142 325.877 236.828C326.174 237.562 326.32 238.348 326.306 239.139C326.344 240.454 326.01 241.754 325.342 242.887C324.722 243.895 323.885 244.752 322.894 245.396C321.884 246.047 320.772 246.523 319.604 246.804C318.46 247.103 317.283 247.257 316.1 247.263C315.193 247.263 314.287 247.186 313.392 247.034C312.515 246.886 311.651 246.671 310.807 246.391C309.998 246.118 309.215 245.775 308.466 245.366C307.778 244.982 307.141 244.514 306.569 243.974L311.663 239.276C311.935 239.589 312.249 239.862 312.597 240.087C312.96 240.317 313.344 240.512 313.744 240.669C314.132 240.831 314.53 240.964 314.938 241.067C315.309 241.153 315.689 241.199 316.07 241.204C316.693 241.231 317.312 241.105 317.875 240.837C318.079 240.738 318.25 240.584 318.37 240.392C318.489 240.199 318.551 239.977 318.548 239.751C318.542 239.547 318.487 239.348 318.389 239.17C318.291 238.992 318.151 238.839 317.982 238.726C317.338 238.294 316.624 237.978 315.871 237.792C315.085 237.547 314.318 237.246 313.576 236.89C312.892 236.578 312.262 236.16 311.709 235.65C311.183 235.165 310.761 234.576 310.47 233.921C310.145 233.142 309.989 232.302 310.011 231.458C310.004 230.327 310.252 229.208 310.737 228.185C311.221 227.163 311.93 226.263 312.811 225.552C313.75 224.772 314.831 224.18 315.993 223.808C317.307 223.379 318.681 223.167 320.063 223.181C320.874 223.183 321.682 223.255 322.481 223.395C323.246 223.52 323.999 223.714 324.73 223.976C325.407 224.208 326.062 224.5 326.688 224.849C327.249 225.165 327.763 225.556 328.218 226.011L323.444 230.617Z" fill="#32323B"/>
<path d="M330.207 246.621L334.231 223.824H349.133L348.031 230.036H340.121L339.724 232.223H347.266L346.226 238.022H338.699L338.285 240.394H347.098L346.012 246.621H330.207Z" fill="#32323B"/>
<path d="M355.727 223.824H365.152C366.466 223.83 367.772 224.01 369.038 224.359C370.301 224.697 371.489 225.268 372.542 226.042C373.613 226.857 374.486 227.903 375.097 229.102C375.808 230.487 376.156 232.029 376.107 233.585C376.134 235.449 375.775 237.299 375.051 239.017C374.397 240.586 373.404 241.991 372.144 243.132C370.86 244.283 369.363 245.171 367.738 245.749C365.959 246.374 364.085 246.684 362.199 246.667H351.704L355.727 223.824ZM360.011 240.21H362.429C363.302 240.228 364.169 240.056 364.969 239.705C365.662 239.393 366.286 238.945 366.805 238.389C367.293 237.841 367.667 237.201 367.906 236.507C368.15 235.809 368.275 235.075 368.273 234.335C368.279 233.775 368.196 233.217 368.029 232.682C367.863 232.183 367.585 231.728 367.218 231.351C366.824 230.95 366.35 230.637 365.825 230.433C365.178 230.201 364.494 230.087 363.806 230.097H361.817L360.011 240.21Z" fill="#32323B"/>
<path d="M134.459 394.847H186.8L181.063 318.914H128.721L134.459 394.847Z" fill="#32323B"/>
<path d="M117.552 394.847H169.894L181.063 318.914H128.721L117.552 394.847Z" fill="#FCFCFC"/>
<path d="M169.894 395.551H117.552C117.453 395.551 117.355 395.529 117.265 395.487C117.175 395.444 117.095 395.383 117.032 395.306C116.965 395.232 116.915 395.145 116.886 395.05C116.857 394.954 116.849 394.854 116.864 394.755L128.033 318.806C128.052 318.638 128.133 318.484 128.261 318.373C128.388 318.263 128.553 318.204 128.721 318.209H181.001C181.1 318.211 181.198 318.234 181.288 318.276C181.377 318.318 181.457 318.379 181.522 318.454C181.589 318.528 181.638 318.615 181.668 318.711C181.697 318.806 181.704 318.906 181.69 319.005L170.521 394.954C170.5 395.11 170.427 395.255 170.313 395.363C170.199 395.472 170.051 395.538 169.894 395.551ZM118.363 394.159H169.282L180.252 319.602H129.333L118.363 394.159Z" fill="#32323B"/>
<path d="M162.167 385.744H125.921C125.811 385.74 125.703 385.714 125.604 385.666C125.504 385.619 125.416 385.551 125.344 385.468C125.272 385.384 125.218 385.287 125.186 385.182C125.154 385.076 125.144 384.966 125.156 384.856L134.336 326.181C134.362 326.001 134.453 325.837 134.591 325.719C134.728 325.6 134.904 325.536 135.086 325.538H171.806C171.916 325.539 172.024 325.563 172.124 325.607C172.224 325.652 172.314 325.717 172.387 325.798C172.456 325.886 172.507 325.987 172.536 326.095C172.565 326.202 172.572 326.315 172.556 326.426L162.794 385.101C162.771 385.261 162.698 385.409 162.585 385.524C162.472 385.639 162.326 385.716 162.167 385.744ZM126.87 384.214H161.509L171.026 327.068H135.836L126.87 384.214Z" fill="#C6C6C6"/>
<path d="M162.81 340.853H140.41C140.208 340.853 140.013 340.773 139.87 340.629C139.726 340.486 139.645 340.291 139.645 340.088C139.645 339.885 139.726 339.691 139.87 339.547C140.013 339.404 140.208 339.323 140.41 339.323H162.81C163.013 339.323 163.207 339.404 163.351 339.547C163.494 339.691 163.575 339.885 163.575 340.088C163.571 340.29 163.489 340.482 163.346 340.625C163.204 340.768 163.011 340.849 162.81 340.853Z" fill="#C6C6C6"/>
<path d="M158.449 349.681H139.11C138.908 349.677 138.716 349.595 138.573 349.452C138.431 349.31 138.349 349.118 138.345 348.916C138.345 348.713 138.426 348.518 138.569 348.375C138.713 348.231 138.907 348.151 139.11 348.151H158.449C158.652 348.151 158.847 348.231 158.99 348.375C159.134 348.518 159.214 348.713 159.214 348.916C159.214 349.119 159.134 349.313 158.99 349.457C158.847 349.6 158.652 349.681 158.449 349.681Z" fill="#C6C6C6"/>
<path d="M160.209 359.152H137.81C137.607 359.152 137.412 359.071 137.269 358.928C137.125 358.785 137.045 358.59 137.045 358.387C137.045 358.184 137.125 357.99 137.269 357.846C137.412 357.703 137.607 357.622 137.81 357.622H160.209C160.412 357.622 160.606 357.703 160.75 357.846C160.893 357.99 160.974 358.184 160.974 358.387C160.974 358.59 160.893 358.785 160.75 358.928C160.606 359.071 160.412 359.152 160.209 359.152Z" fill="#C6C6C6"/>
<path d="M155.864 367.98H136.509C136.306 367.98 136.112 367.899 135.968 367.756C135.825 367.612 135.744 367.418 135.744 367.215C135.748 367.013 135.83 366.821 135.972 366.678C136.115 366.535 136.307 366.454 136.509 366.45H155.864C156.065 366.454 156.258 366.535 156.4 366.678C156.543 366.821 156.625 367.013 156.629 367.215C156.629 367.418 156.548 367.612 156.405 367.756C156.261 367.899 156.066 367.98 155.864 367.98Z" fill="#C6C6C6"/>
<path d="M440.872 254.255C440.715 254.253 440.563 254.204 440.435 254.114C440.306 254.024 440.208 253.897 440.153 253.751C435.128 238.646 433.453 222.628 435.242 206.81C435.272 206.607 435.382 206.425 435.547 206.303C435.712 206.181 435.918 206.129 436.121 206.16C436.324 206.19 436.507 206.3 436.629 206.465C436.751 206.63 436.802 206.837 436.772 207.04C435.016 222.611 436.671 238.378 441.622 253.246C441.686 253.439 441.672 253.649 441.583 253.832C441.495 254.014 441.338 254.156 441.147 254.225L440.872 254.255Z" fill="#C6C6C6"/>
<path d="M424.623 276.303C424.504 276.305 424.387 276.277 424.28 276.224C424.174 276.171 424.082 276.093 424.011 275.997C423.782 275.691 401.689 244.892 405.896 174.62C405.895 174.517 405.916 174.415 405.958 174.321C406 174.228 406.061 174.144 406.138 174.076C406.215 174.007 406.305 173.957 406.404 173.926C406.502 173.896 406.605 173.887 406.707 173.9C406.808 173.904 406.908 173.928 406.999 173.972C407.091 174.015 407.173 174.076 407.24 174.152C407.307 174.228 407.358 174.317 407.39 174.413C407.422 174.509 407.434 174.61 407.426 174.711C405.238 211.11 410.211 236.462 414.755 251.334C419.681 267.429 425.174 275.018 425.235 275.095C425.353 275.258 425.403 275.461 425.375 275.661C425.346 275.861 425.241 276.041 425.082 276.166C424.946 276.255 424.786 276.303 424.623 276.303Z" fill="#C6C6C6"/>
<path d="M173.795 256.046H173.688C173.486 256.016 173.304 255.908 173.181 255.745C173.058 255.581 173.004 255.377 173.03 255.174C180.236 204.378 167.308 172.692 167.17 172.371C167.1 172.186 167.104 171.981 167.182 171.799C167.26 171.617 167.405 171.472 167.587 171.395C167.769 171.318 167.974 171.314 168.159 171.385C168.343 171.455 168.494 171.595 168.578 171.774C168.716 172.095 181.812 204.149 174.545 255.388C174.519 255.57 174.43 255.736 174.292 255.856C174.154 255.977 173.978 256.044 173.795 256.046Z" fill="#C6C6C6"/>
<path d="M232.379 199.007C232.255 199.008 232.134 198.976 232.027 198.915C231.937 198.868 231.857 198.804 231.792 198.726C231.727 198.649 231.679 198.559 231.649 198.462C231.619 198.365 231.608 198.263 231.618 198.163C231.628 198.062 231.658 197.964 231.706 197.875C239.356 183.554 239.356 172.614 239.356 172.507C239.356 172.304 239.436 172.11 239.58 171.966C239.723 171.823 239.918 171.742 240.121 171.742C240.323 171.742 240.518 171.823 240.662 171.966C240.805 172.11 240.886 172.304 240.886 172.507C240.886 172.966 240.809 183.906 232.991 198.594C232.932 198.709 232.845 198.807 232.738 198.879C232.631 198.951 232.507 198.995 232.379 199.007Z" fill="#C6C6C6"/>
<path d="M176.916 279.73C176.746 279.729 176.581 279.676 176.442 279.577C176.287 279.446 176.187 279.26 176.165 279.058C176.142 278.856 176.197 278.653 176.32 278.491C176.58 278.17 201.825 245.764 198.443 196.36C198.429 196.158 198.496 195.957 198.63 195.804C198.763 195.65 198.952 195.556 199.155 195.542C199.358 195.528 199.558 195.595 199.712 195.728C199.865 195.862 199.959 196.05 199.973 196.253C203.401 246.284 177.788 279.118 177.528 279.455C177.453 279.542 177.359 279.613 177.253 279.66C177.147 279.708 177.032 279.732 176.916 279.73Z" fill="#C6C6C6"/>
</svg>
