<svg width="22" height="22" viewBox="0 0 22 22" fill="none" xmlns="http://www.w3.org/2000/svg">
<path d="M4.07997 6.67125L2.43527 8.31595C0.792851 9.95837 0.79285 12.6212 2.43527 14.2637L4.07997 15.9084M4.07997 6.67125L7.77736 2.97386C9.41978 1.33144 12.0827 1.33144 13.7251 2.97386L17.4225 6.67125M4.07997 6.67125L6.2077 6.67125C6.4881 6.67125 6.75689 6.78326 6.95432 6.98238L10.0046 10.0588C10.4159 10.4736 11.0865 10.4736 11.4978 10.0588L14.5481 6.98238C14.7455 6.78326 15.0143 6.67125 15.2947 6.67125L17.4225 6.67125M17.4225 6.67125L19.0672 8.31595C20.7096 9.95837 20.7096 12.6213 19.0672 14.2637L17.4225 15.9084M4.07997 15.9084L7.77736 19.6058C9.41978 21.2482 12.0827 21.2482 13.7251 19.6058L17.4225 15.9084M4.07997 15.9084L6.25208 15.9084C6.50597 15.9084 6.75129 15.8165 6.94273 15.6497L10.0606 12.9335C10.4564 12.5887 11.046 12.5887 11.4419 12.9335L14.5597 15.6497C14.7512 15.8165 14.9965 15.9084 15.2504 15.9084L17.4225 15.9084" stroke="#32323B" stroke-width="2.10283"/>
</svg>
