<svg width="21" height="20" viewBox="0 0 21 20" fill="none" xmlns="http://www.w3.org/2000/svg">
<path d="M6.46143 16C5.36143 16 4.47143 16.9 4.47143 18C4.47143 19.1 5.36143 20 6.46143 20C7.56143 20 8.46143 19.1 8.46143 18C8.46143 16.9 7.56143 16 6.46143 16ZM16.4614 16C15.3614 16 14.4714 16.9 14.4714 18C14.4714 19.1 15.3614 20 16.4614 20C17.5614 20 18.4614 19.1 18.4614 18C18.4614 16.9 17.5614 16 16.4614 16ZM15.0114 11C15.7614 11 16.4214 10.59 16.7614 9.97L20.3414 3.48C20.7114 2.82 20.2314 2 19.4714 2H4.67143L3.73143 0H0.461426V2H2.46143L6.06143 9.59L4.71143 12.03C3.98143 13.37 4.94143 15 6.46143 15H18.4614V13H6.46143L7.56143 11H15.0114ZM5.62143 4H17.7714L15.0114 9H7.99143L5.62143 4Z" fill="#B7005C"/>
</svg>
