<svg width="25" height="24" viewBox="0 0 25 24" fill="none" xmlns="http://www.w3.org/2000/svg">
<g clip-path="url(#clip0_5911_629)">
<path d="M14.5814 10.47L12.4614 12.59L10.3314 10.47L8.92143 11.88L11.0514 14L8.93143 16.12L10.3414 17.53L12.4614 15.41L14.5814 17.53L15.9914 16.12L13.8714 14L15.9914 11.88L14.5814 10.47ZM15.9614 4L14.9614 3H9.96143L8.96143 4H5.46143V6H19.4614V4H15.9614ZM6.46143 19C6.46143 20.1 7.36143 21 8.46143 21H16.4614C17.5614 21 18.4614 20.1 18.4614 19V7H6.46143V19ZM8.46143 9H16.4614V19H8.46143V9Z" fill="#32323B"/>
</g>
<defs>
<clipPath id="clip0_5911_629">
<rect width="24" height="24" fill="white" transform="translate(0.461426)"/>
</clipPath>
</defs>
</svg>
