<svg width="33" height="32" viewBox="0 0 33 32" fill="none" xmlns="http://www.w3.org/2000/svg">
<g clip-path="url(#clip0_5911_522)">
<path d="M16.4614 2.66675C9.10142 2.66675 3.12808 8.64008 3.12808 16.0001C3.12808 23.3601 9.10142 29.3334 16.4614 29.3334C23.8214 29.3334 29.7948 23.3601 29.7948 16.0001C29.7948 8.64008 23.8214 2.66675 16.4614 2.66675ZM9.88808 24.3734C10.4614 23.1734 13.9547 22.0001 16.4614 22.0001C18.9681 22.0001 22.4748 23.1734 23.0347 24.3734C21.2214 25.8134 18.9414 26.6667 16.4614 26.6667C13.9814 26.6667 11.7014 25.8134 9.88808 24.3734ZM24.9414 22.4401C23.0347 20.1201 18.4081 19.3334 16.4614 19.3334C14.5147 19.3334 9.88808 20.1201 7.98142 22.4401C6.62142 20.6534 5.79475 18.4267 5.79475 16.0001C5.79475 10.1201 10.5814 5.33341 16.4614 5.33341C22.3414 5.33341 27.1281 10.1201 27.1281 16.0001C27.1281 18.4267 26.3014 20.6534 24.9414 22.4401ZM16.4614 8.00008C13.8747 8.00008 11.7947 10.0801 11.7947 12.6667C11.7947 15.2534 13.8747 17.3334 16.4614 17.3334C19.0481 17.3334 21.1281 15.2534 21.1281 12.6667C21.1281 10.0801 19.0481 8.00008 16.4614 8.00008ZM16.4614 14.6667C15.3547 14.6667 14.4614 13.7734 14.4614 12.6667C14.4614 11.5601 15.3547 10.6667 16.4614 10.6667C17.5681 10.6667 18.4614 11.5601 18.4614 12.6667C18.4614 13.7734 17.5681 14.6667 16.4614 14.6667Z" fill="#32323B"/>
</g>
<defs>
<clipPath id="clip0_5911_522">
<rect width="32" height="32" fill="white" transform="translate(0.461426)"/>
</clipPath>
</defs>
</svg>
