<svg width="16" height="16" viewBox="0 0 16 16" fill="none" xmlns="http://www.w3.org/2000/svg">
<path fill-rule="evenodd" clip-rule="evenodd" d="M13.4008 0.939335C13.9865 0.353555 14.9363 0.353555 15.5221 0.939335C16.1078 1.52513 16.1078 2.47487 15.5221 3.06066L10.5827 8L15.5221 12.9394C16.1078 13.5251 16.1078 14.4749 15.5221 15.0606C14.9363 15.6464 13.9865 15.6464 13.4008 15.0606L8.46143 10.1213L3.52209 15.0606C2.9363 15.6464 1.98656 15.6464 1.40076 15.0606C0.814981 14.4749 0.814981 13.5251 1.40076 12.9394L6.34011 8L1.40076 3.06066C0.814981 2.47487 0.814981 1.52513 1.40076 0.939335C1.98656 0.353555 2.9363 0.353555 3.52209 0.939335L8.46143 5.87868L13.4008 0.939335Z" fill="#C6C6C6"/>
</svg>
